<svg id="Camada_1" data-name="Camada 1" xmlns="http://www.w3.org/2000/svg" xmlns:xlink="http://www.w3.org/1999/xlink" viewBox="0 0 268 49.75"><defs><style>.cls-1{fill:none;}.cls-2{clip-path:url(#clip-path);}.cls-3{fill:#164c7b;}.cls-4{opacity:0.5;}.cls-5{clip-path:url(#clip-path-3);}.cls-6{fill:#1c5c88;}.cls-7{clip-path:url(#clip-path-4);}.cls-8{opacity:0.45;}.cls-9{clip-path:url(#clip-path-5);}.cls-10{fill:#38a3d2;}.cls-11{opacity:0.28;}.cls-12{clip-path:url(#clip-path-6);}.cls-13{fill:#248aaf;}.cls-14{fill:#fff;}.cls-15{fill:#5a595b;}</style><clipPath id="clip-path"><rect class="cls-1" x="-569" y="-540.28" width="841.89" height="595.28"/></clipPath><clipPath id="clip-path-3"><rect class="cls-1" x="1.4" y="15.51" width="32.65" height="33.23"/></clipPath><clipPath id="clip-path-4"><rect class="cls-1" x="20.72" y="10.68" width="27.17" height="38.06"/></clipPath><clipPath id="clip-path-5"><rect class="cls-1" x="1.4" y="11.75" width="16.77" height="13.25"/></clipPath><clipPath id="clip-path-6"><rect class="cls-1" x="20.43" y="2.29" width="22.14" height="46.13"/></clipPath></defs><title>Prancheta 1</title><g class="cls-2"><g class="cls-2"><path class="cls-3" d="M47.9,25.35A23.25,23.25,0,1,1,24.65,2.1,23.25,23.25,0,0,1,47.9,25.35"/><g class="cls-4"><g class="cls-5"><path class="cls-6" d="M3.64,15.51A23.26,23.26,0,0,0,34,46.76Z"/></g></g><g class="cls-4"><g class="cls-7"><path class="cls-6" d="M20.72,48.4A23.26,23.26,0,0,0,42.58,10.68Z"/></g></g><g class="cls-8"><g class="cls-9"><path class="cls-10" d="M1.4,25,18.17,11.75,4.25,14.3A23.12,23.12,0,0,0,1.4,25"/></g></g><g class="cls-11"><g class="cls-12"><path class="cls-13" d="M26.25,2.29,20.43,48.36l.34.06,21.8-37.69A23.2,23.2,0,0,0,26.25,2.29"/></g></g><path class="cls-14" d="M41.93,9.68A23.19,23.19,0,0,0,24.66,2h-.27L20.23,4s-.33-.71-.71-1.41a23.11,23.11,0,0,0-7.78,3.34c.42,1.28.86,2.64.93,2.92.12.47-5,4-9.19,6.79A24,24,0,0,0,2.58,18c4.6-2.73,11.27-6.64,11.41-6.43s4.74,7.85,4.74,7.85c8.74,20.46,11.91,28.57,12.07,28.54-1-3.31-6.09-21-5.83-21.6,0-.06.14,0,.23.1C39.48,35.79,42,9.82,42,9.82l0-.13M22.3,8.16C22.12,7.67,31.1,4,35,4.91c3.42.76-.1,13.08-2.46,15.56"/></g><path class="cls-15" d="M58.38,10.09H60l.41,1.3a4.68,4.68,0,0,1,3.5-1.47c2.39,0,4.37,1.64,4.37,3.68v9.62c0,2-2,3.69-4.37,3.69a4.73,4.73,0,0,1-3.17-1.16v6.31l-2.39.21Zm2.39,13.13c0,1.06,1.15,1.91,2.58,1.91s2.58-.85,2.58-1.91V13.61c0-1.06-1.15-1.91-2.58-1.91s-2.58.85-2.58,1.91Z"/><path class="cls-15" d="M78.94,11.7h-1.7c-1.56,0-2.76.92-2.76,2.08v13H72.09V10.09h1.66l.41,1.3c.78-.89,2.35-1.47,4.78-1.47Z"/><path class="cls-15" d="M81.11,13.61c0-2,2.21-3.68,5-3.68s5,1.64,5,3.68v9.62c0,2-2.21,3.69-5,3.69s-5-1.64-5-3.69Zm2.39,9.62c0,1.06,1.15,1.91,2.58,1.91s2.58-.85,2.58-1.91V13.61c0-1.06-1.15-1.91-2.58-1.91s-2.58.85-2.58,1.91Z"/><path class="cls-15" d="M101.58,21.8a1.77,1.77,0,0,0-.78-1.43l-5-3.07a3.56,3.56,0,0,1-1.61-2.8v-1c0-1.94,2.16-3.55,4.79-3.55s4.78,1.6,4.78,3.55V15l-2.39.21V13.47c0-1-1.06-1.77-2.39-1.77s-2.39.78-2.39,1.77v1a1.77,1.77,0,0,0,.78,1.43l5,3.07A3.56,3.56,0,0,1,104,21.8v1.43c0,2-2.21,3.69-5,3.69s-5-1.64-5-3.69V21.59l2.39-.2v1.84c0,1.06,1.15,1.91,2.58,1.91s2.58-.85,2.58-1.91Z"/><path class="cls-15" d="M116.94,21v2.18c0,2-2.21,3.69-5,3.69s-5-1.64-5-3.69V13.61c0-2,2.21-3.68,5-3.68s5,1.64,5,3.68v5.12H109.4v4.5c0,1.06,1.15,1.91,2.58,1.91s2.58-.85,2.58-1.91v-2ZM109.4,17h5.15V13.61c0-1.06-1.15-1.91-2.58-1.91s-2.58.85-2.58,1.91Z"/><path class="cls-15" d="M127.3,21.8a1.77,1.77,0,0,0-.78-1.43l-5-3.07a3.56,3.56,0,0,1-1.61-2.8v-1c0-1.94,2.16-3.55,4.78-3.55s4.78,1.6,4.78,3.55V15l-2.39.21V13.47c0-1-1.06-1.77-2.39-1.77s-2.39.78-2.39,1.77v1a1.77,1.77,0,0,0,.78,1.43l5,3.07a3.56,3.56,0,0,1,1.61,2.8v1.43c0,2-2.21,3.69-5,3.69s-5-1.64-5-3.69V21.59l2.39-.2v1.84c0,1.06,1.15,1.91,2.58,1.91s2.58-.85,2.58-1.91Z"/><path class="cls-15" d="M148.09,13.61c0-1.06-1.15-1.91-2.58-1.91s-2.58.85-2.58,1.91V26.74h-2.39V13.61c0-1.06-1.15-1.91-2.58-1.91s-2.58.85-2.58,1.91V26.74H133V10.09h1.66l.41,1.3a4.68,4.68,0,0,1,3.5-1.47,4.85,4.85,0,0,1,3.27,1.23,5.71,5.71,0,0,1,3.68-1.23c2.76,0,5,1.64,5,3.68V26.74h-2.39Z"/><path class="cls-15" d="M153,10.09h2.9V6.89l2.39-.2v3.41h2.9v1.77h-2.9V24.46c0,.38.41.68.92.68v1.77c-1.84,0-3.31-1.09-3.31-2.46V11.87H153Z"/><path class="cls-15" d="M60.18,42.19V37.47H58.51v-.63h4v.63H60.85v4.71Z"/><path class="cls-15" d="M63.23,42.19V36.84h3.66v.63h-3v1.64h2.8v.63H63.9v1.82H67v.63Z"/><path class="cls-15" d="M71.55,40.31l.67.18a2.41,2.41,0,0,1-.76,1.33,2,2,0,0,1-1.34.46,2.31,2.31,0,0,1-1.33-.35,2.17,2.17,0,0,1-.78-1,3.81,3.81,0,0,1-.27-1.43A3.3,3.3,0,0,1,68,38a2.14,2.14,0,0,1,.86-.94,2.41,2.41,0,0,1,1.23-.32,2,2,0,0,1,1.28.41,2.13,2.13,0,0,1,.72,1.15l-.66.16a1.65,1.65,0,0,0-.51-.85,1.31,1.31,0,0,0-.84-.27,1.51,1.51,0,0,0-1.53,1.09,3.37,3.37,0,0,0-.16,1,3.43,3.43,0,0,0,.19,1.19,1.47,1.47,0,0,0,.59.76,1.58,1.58,0,0,0,.86.25,1.4,1.4,0,0,0,1-.34A1.78,1.78,0,0,0,71.55,40.31Z"/><path class="cls-15" d="M73,42.19V36.84h.69L76.38,41v-4.2H77v5.35h-.69L73.68,38v4.2Z"/><path class="cls-15" d="M78,39.58a3,3,0,0,1,.68-2.08,2.24,2.24,0,0,1,1.75-.75,2.33,2.33,0,0,1,1.26.35,2.26,2.26,0,0,1,.86,1,3.35,3.35,0,0,1,.3,1.43A3.29,3.29,0,0,1,82.48,41a2.19,2.19,0,0,1-.88,1,2.41,2.41,0,0,1-1.23.33,2.29,2.29,0,0,1-2.13-1.36A3.15,3.15,0,0,1,78,39.58Zm.69,0a2.22,2.22,0,0,0,.49,1.52,1.66,1.66,0,0,0,2.48,0,2.35,2.35,0,0,0,.49-1.59,2.86,2.86,0,0,0-.21-1.14,1.67,1.67,0,0,0-.61-.75,1.59,1.59,0,0,0-.9-.27,1.67,1.67,0,0,0-1.23.52A2.39,2.39,0,0,0,78.64,39.59Z"/><path class="cls-15" d="M83.63,42.19V36.84h.67v4.71h2.5v.63Z"/><path class="cls-15" d="M87.39,39.58a3,3,0,0,1,.68-2.08,2.24,2.24,0,0,1,1.75-.75,2.33,2.33,0,0,1,1.26.35,2.26,2.26,0,0,1,.86,1,3.35,3.35,0,0,1,.3,1.43A3.29,3.29,0,0,1,91.92,41a2.19,2.19,0,0,1-.88,1,2.41,2.41,0,0,1-1.23.33,2.29,2.29,0,0,1-2.13-1.36A3.15,3.15,0,0,1,87.39,39.58Zm.69,0a2.22,2.22,0,0,0,.49,1.52,1.66,1.66,0,0,0,2.48,0,2.35,2.35,0,0,0,.49-1.59,2.86,2.86,0,0,0-.21-1.14,1.67,1.67,0,0,0-.61-.75,1.59,1.59,0,0,0-.9-.27,1.67,1.67,0,0,0-1.23.52A2.39,2.39,0,0,0,88.08,39.59Z"/><path class="cls-15" d="M95.47,40.09v-.63h2.15v2a3.74,3.74,0,0,1-1,.63,2.89,2.89,0,0,1-1.08.21,2.76,2.76,0,0,1-1.36-.34,2.17,2.17,0,0,1-.92-1,3.22,3.22,0,0,1-.31-1.43,3.46,3.46,0,0,1,.31-1.46,2.13,2.13,0,0,1,.89-1,2.67,2.67,0,0,1,1.34-.33,2.53,2.53,0,0,1,1,.19,1.66,1.66,0,0,1,.7.52,2.37,2.37,0,0,1,.38.88l-.6.17a2,2,0,0,0-.28-.64,1.16,1.16,0,0,0-.48-.37,1.69,1.69,0,0,0-.7-.14,2,2,0,0,0-.79.15,1.49,1.49,0,0,0-.54.39,1.86,1.86,0,0,0-.32.53,2.94,2.94,0,0,0-.19,1.08,2.74,2.74,0,0,0,.23,1.2,1.53,1.53,0,0,0,.68.71,2,2,0,0,0,.95.23,2.14,2.14,0,0,0,.85-.18,2.17,2.17,0,0,0,.63-.38v-1Z"/><path class="cls-15" d="M98.72,42.19V36.84h.67v5.35Z"/><path class="cls-15" d="M100,42.19,102,36.84h.72l2.07,5.35H104l-.59-1.62h-2.12l-.56,1.62Zm1.46-2.2h1.72l-.53-1.48q-.24-.68-.36-1.11a7.13,7.13,0,0,1-.27,1Z"/><path class="cls-15" d="M106.86,42.19V36.84h1.91a4.37,4.37,0,0,1,.77.05,1.48,1.48,0,0,1,.63.25,1.29,1.29,0,0,1,.41.52,1.72,1.72,0,0,1,.15.73,1.7,1.7,0,0,1-.41,1.15,1.91,1.91,0,0,1-1.49.47h-1.3v2.17Zm.67-2.8h1.31a1.34,1.34,0,0,0,.92-.25.94.94,0,0,0,.27-.72,1,1,0,0,0-.16-.57.75.75,0,0,0-.42-.32,2.75,2.75,0,0,0-.63,0h-1.3Z"/><path class="cls-15" d="M110.5,42.19l1.95-5.35h.72l2.07,5.35h-.76l-.59-1.62h-2.12l-.56,1.62ZM112,40h1.72l-.53-1.48q-.24-.68-.36-1.11a7.13,7.13,0,0,1-.27,1Z"/><path class="cls-15" d="M115.79,42.19V36.84H118a2.86,2.86,0,0,1,1,.14,1.14,1.14,0,0,1,.56.51,1.58,1.58,0,0,1,.21.81,1.39,1.39,0,0,1-.35,1,1.72,1.72,0,0,1-1.08.5,1.7,1.7,0,0,1,.4.27,3.69,3.69,0,0,1,.56.71l.88,1.46h-.84l-.67-1.11q-.29-.48-.48-.74a1.53,1.53,0,0,0-.34-.36,1,1,0,0,0-.31-.14,2,2,0,0,0-.37,0h-.78v2.37Zm.67-3h1.44a2.07,2.07,0,0,0,.72-.1.77.77,0,0,0,.39-.32.9.9,0,0,0,.13-.48.81.81,0,0,0-.26-.62,1.18,1.18,0,0,0-.82-.25h-1.6Z"/><path class="cls-15" d="M120.33,42.19l1.95-5.35H123l2.07,5.35h-.76l-.59-1.62H121.6L121,42.19ZM121.8,40h1.72L123,38.51q-.24-.68-.36-1.11a7.13,7.13,0,0,1-.27,1Z"/><path class="cls-15" d="M127.17,42.19V36.84h1l1.2,3.79.24.79c.06-.19.15-.48.27-.86l1.21-3.72h.9v5.35h-.65V37.71l-1.47,4.47h-.6l-1.47-4.55v4.55Z"/><path class="cls-15" d="M133.1,42.19V36.84h3.66v.63h-3v1.64h2.8v.63h-2.8v1.82h3.11v.63Z"/><path class="cls-15" d="M137.8,42.19V36.84h1.75a4,4,0,0,1,.9.08,1.68,1.68,0,0,1,.74.38,2.19,2.19,0,0,1,.6.91,3.79,3.79,0,0,1,.2,1.27,3.92,3.92,0,0,1-.13,1.08,2.7,2.7,0,0,1-.35.78,1.88,1.88,0,0,1-.46.48,1.84,1.84,0,0,1-.6.27,3.29,3.29,0,0,1-.81.09Zm.67-.63h1.08a2.5,2.5,0,0,0,.79-.1,1.12,1.12,0,0,0,.45-.28,1.69,1.69,0,0,0,.37-.68,3.47,3.47,0,0,0,.13-1,2.59,2.59,0,0,0-.26-1.29,1.33,1.33,0,0,0-.63-.6,2.48,2.48,0,0,0-.87-.11h-1.06Z"/><path class="cls-15" d="M143,42.19V36.84h.67v5.35Z"/><path class="cls-15" d="M148.49,40.31l.67.18a2.41,2.41,0,0,1-.76,1.33,2,2,0,0,1-1.34.46,2.31,2.31,0,0,1-1.33-.35,2.17,2.17,0,0,1-.78-1,3.81,3.81,0,0,1-.27-1.43A3.3,3.3,0,0,1,145,38a2.14,2.14,0,0,1,.86-.94,2.41,2.41,0,0,1,1.23-.32,2,2,0,0,1,1.28.41,2.13,2.13,0,0,1,.72,1.15l-.66.16a1.65,1.65,0,0,0-.51-.85,1.31,1.31,0,0,0-.84-.27,1.51,1.51,0,0,0-1.53,1.09,3.37,3.37,0,0,0-.16,1,3.43,3.43,0,0,0,.19,1.19,1.47,1.47,0,0,0,.59.76,1.58,1.58,0,0,0,.86.25,1.4,1.4,0,0,0,1-.34A1.78,1.78,0,0,0,148.49,40.31Z"/><path class="cls-15" d="M150.1,42.19V36.84h.67v5.35Z"/><path class="cls-15" d="M151.95,42.19V36.84h.69l2.66,4.2v-4.2h.64v5.35h-.69L152.59,38v4.2Z"/><path class="cls-15" d="M156.51,42.19l1.95-5.35h.72l2.07,5.35h-.76l-.59-1.62h-2.12l-.56,1.62ZM158,40h1.72l-.53-1.48q-.24-.68-.36-1.11a7.13,7.13,0,0,1-.27,1Z"/><path class="cls-15" d="M163.37,42.19V36.84H167v.63h-3v1.64h2.8v.63H164v1.82h3.11v.63Z"/><path class="cls-15" d="M169.82,40.47l.63-.06a1.53,1.53,0,0,0,.21.66,1.15,1.15,0,0,0,.51.42,1.85,1.85,0,0,0,.78.16,1.75,1.75,0,0,0,.68-.12.94.94,0,0,0,.44-.33.79.79,0,0,0,.14-.46.72.72,0,0,0-.14-.44,1,1,0,0,0-.46-.32,8.69,8.69,0,0,0-.9-.26,4.44,4.44,0,0,1-1-.33,1.39,1.39,0,0,1-.54-.5,1.27,1.27,0,0,1-.18-.67,1.41,1.41,0,0,1,.22-.76,1.36,1.36,0,0,1,.64-.53,2.29,2.29,0,0,1,.93-.18,2.44,2.44,0,0,1,1,.19,1.45,1.45,0,0,1,.66.56,1.69,1.69,0,0,1,.25.84l-.64.05a1.12,1.12,0,0,0-.35-.77,1.31,1.31,0,0,0-.88-.26,1.36,1.36,0,0,0-.89.24.72.72,0,0,0-.28.57.62.62,0,0,0,.2.47,2.58,2.58,0,0,0,1,.38,6.47,6.47,0,0,1,1.12.34,1.56,1.56,0,0,1,.65.54,1.39,1.39,0,0,1,.21.76,1.51,1.51,0,0,1-.23.8,1.55,1.55,0,0,1-.67.59,2.21,2.21,0,0,1-1,.21,2.78,2.78,0,0,1-1.15-.21,1.65,1.65,0,0,1-.73-.64A1.88,1.88,0,0,1,169.82,40.47Z"/><path class="cls-15" d="M174.78,42.19V36.84h3.66v.63h-3v1.64h2.8v.63h-2.8v1.82h3.11v.63Z"/><path class="cls-15" d="M181.86,40.09v-.63H184v2a3.74,3.74,0,0,1-1,.63,2.89,2.89,0,0,1-1.08.21,2.76,2.76,0,0,1-1.36-.34,2.17,2.17,0,0,1-.92-1,3.22,3.22,0,0,1-.31-1.43,3.46,3.46,0,0,1,.31-1.46,2.13,2.13,0,0,1,.89-1,2.67,2.67,0,0,1,1.34-.33,2.53,2.53,0,0,1,1,.19,1.66,1.66,0,0,1,.7.52,2.37,2.37,0,0,1,.38.88l-.6.17a2,2,0,0,0-.28-.64,1.16,1.16,0,0,0-.48-.37,1.69,1.69,0,0,0-.7-.14,2,2,0,0,0-.79.15,1.49,1.49,0,0,0-.54.39,1.86,1.86,0,0,0-.32.53A2.94,2.94,0,0,0,180,39.5a2.74,2.74,0,0,0,.23,1.2,1.53,1.53,0,0,0,.68.71,2,2,0,0,0,.95.23,2.14,2.14,0,0,0,.85-.18,2.17,2.17,0,0,0,.63-.38v-1Z"/><path class="cls-15" d="M188.31,36.84H189v3.09a3.84,3.84,0,0,1-.17,1.28,1.55,1.55,0,0,1-.62.77,2.12,2.12,0,0,1-1.18.3,2.33,2.33,0,0,1-1.17-.26,1.45,1.45,0,0,1-.65-.75,3.75,3.75,0,0,1-.19-1.34V36.84h.67v3.08a3.15,3.15,0,0,0,.12,1,1,1,0,0,0,.42.51,1.4,1.4,0,0,0,.73.18,1.35,1.35,0,0,0,1.05-.35,2.13,2.13,0,0,0,.31-1.36Z"/><path class="cls-15" d="M190.11,42.19V36.84h2.25a2.86,2.86,0,0,1,1,.14,1.14,1.14,0,0,1,.56.51,1.58,1.58,0,0,1,.21.81,1.39,1.39,0,0,1-.35,1,1.72,1.72,0,0,1-1.08.5,1.7,1.7,0,0,1,.4.27,3.69,3.69,0,0,1,.56.71l.88,1.46h-.84l-.67-1.11q-.29-.48-.48-.74a1.53,1.53,0,0,0-.34-.36,1,1,0,0,0-.31-.14,2,2,0,0,0-.37,0h-.78v2.37Zm.67-3h1.44a2.07,2.07,0,0,0,.72-.1.77.77,0,0,0,.39-.32.9.9,0,0,0,.13-.48.81.81,0,0,0-.26-.62,1.18,1.18,0,0,0-.82-.25h-1.6Z"/><path class="cls-15" d="M194.65,42.19l1.95-5.35h.72l2.07,5.35h-.76L198,40.57h-2.12l-.56,1.62Zm1.46-2.2h1.72l-.53-1.48q-.24-.68-.36-1.11a7.13,7.13,0,0,1-.27,1Z"/><path class="cls-15" d="M199.92,42.19V36.84h.69l2.66,4.2v-4.2h.64v5.35h-.69L200.57,38v4.2Z"/><path class="cls-15" d="M208.65,40.31l.67.18a2.41,2.41,0,0,1-.76,1.33,2,2,0,0,1-1.34.46,2.31,2.31,0,0,1-1.33-.35,2.17,2.17,0,0,1-.78-1,3.81,3.81,0,0,1-.27-1.43,3.3,3.3,0,0,1,.3-1.46,2.14,2.14,0,0,1,.86-.94,2.41,2.41,0,0,1,1.23-.32,2,2,0,0,1,1.28.41,2.13,2.13,0,0,1,.72,1.15l-.66.16a1.65,1.65,0,0,0-.51-.85,1.31,1.31,0,0,0-.84-.27,1.51,1.51,0,0,0-1.53,1.09,3.37,3.37,0,0,0-.16,1,3.43,3.43,0,0,0,.19,1.19,1.47,1.47,0,0,0,.59.76,1.58,1.58,0,0,0,.86.25,1.4,1.4,0,0,0,1-.34A1.78,1.78,0,0,0,208.65,40.31Zm-2,2.44.18-.65h.46l-.11.39a.72.72,0,0,1,.44.19.49.49,0,0,1,.15.34.62.62,0,0,1-.25.48,1.14,1.14,0,0,1-.75.21,2.49,2.49,0,0,1-.5,0l0-.43h.32a.81.81,0,0,0,.46-.09.21.21,0,0,0,.1-.18.18.18,0,0,0,0-.12.31.31,0,0,0-.15-.09A1.3,1.3,0,0,0,206.64,42.75Z"/><path class="cls-15" d="M209.59,42.19l1.95-5.35h.72l2.07,5.35h-.76L213,40.57h-2.12l-.56,1.62Zm1.46-2.2h1.72l-.53-1.48q-.24-.68-.36-1.11a7.13,7.13,0,0,1-.27,1Z"/><path class="cls-15" d="M216.45,42.19V36.84h1.75a4,4,0,0,1,.9.08,1.68,1.68,0,0,1,.74.38,2.19,2.19,0,0,1,.6.91,3.79,3.79,0,0,1,.2,1.27,3.92,3.92,0,0,1-.13,1.08,2.7,2.7,0,0,1-.35.78,1.88,1.88,0,0,1-.46.48,1.84,1.84,0,0,1-.6.27,3.29,3.29,0,0,1-.81.09Zm.67-.63h1.08a2.5,2.5,0,0,0,.79-.1,1.12,1.12,0,0,0,.45-.28,1.69,1.69,0,0,0,.37-.68,3.47,3.47,0,0,0,.13-1,2.59,2.59,0,0,0-.26-1.29,1.33,1.33,0,0,0-.63-.6,2.48,2.48,0,0,0-.87-.11h-1.06Z"/><path class="cls-15" d="M221.35,39.58A3,3,0,0,1,222,37.5a2.24,2.24,0,0,1,1.75-.75,2.33,2.33,0,0,1,1.26.35,2.26,2.26,0,0,1,.86,1,3.35,3.35,0,0,1,.3,1.43,3.29,3.29,0,0,1-.31,1.46,2.19,2.19,0,0,1-.88,1,2.41,2.41,0,0,1-1.23.33,2.29,2.29,0,0,1-2.13-1.36A3.15,3.15,0,0,1,221.35,39.58Zm.69,0a2.22,2.22,0,0,0,.49,1.52,1.66,1.66,0,0,0,2.48,0,2.35,2.35,0,0,0,.49-1.59,2.86,2.86,0,0,0-.21-1.14,1.67,1.67,0,0,0-.61-.75,1.59,1.59,0,0,0-.9-.27,1.67,1.67,0,0,0-1.23.52A2.39,2.39,0,0,0,222,39.59Z"/><path class="cls-15" d="M230.19,42.19V37.47h-1.67v-.63h4v.63h-1.68v4.71Z"/><path class="cls-15" d="M233.23,42.19V36.84h2.25a2.86,2.86,0,0,1,1,.14,1.14,1.14,0,0,1,.56.51,1.58,1.58,0,0,1,.21.81,1.39,1.39,0,0,1-.35,1,1.72,1.72,0,0,1-1.08.5,1.7,1.7,0,0,1,.4.27,3.69,3.69,0,0,1,.56.71l.88,1.46h-.84l-.67-1.11q-.29-.48-.48-.74a1.53,1.53,0,0,0-.34-.36,1,1,0,0,0-.31-.14,2,2,0,0,0-.37,0h-.78v2.37Zm.67-3h1.44a2.07,2.07,0,0,0,.72-.1.77.77,0,0,0,.39-.32.9.9,0,0,0,.13-.48.81.81,0,0,0-.26-.62,1.18,1.18,0,0,0-.82-.25h-1.6Z"/><path class="cls-15" d="M237.78,42.19l1.95-5.35h.72l2.07,5.35h-.76l-.59-1.62H239l-.56,1.62Zm1.46-2.2H241l-.53-1.48q-.24-.68-.36-1.11a7.13,7.13,0,0,1-.27,1Z"/><path class="cls-15" d="M243,42.19V36.84h1.9a2.24,2.24,0,0,1,.93.16,1.21,1.21,0,0,1,.55.5,1.38,1.38,0,0,1,.2.71,1.27,1.27,0,0,1-.18.65,1.28,1.28,0,0,1-.53.49,1.32,1.32,0,0,1,.71.49,1.34,1.34,0,0,1,.25.81,1.63,1.63,0,0,1-.15.7,1.34,1.34,0,0,1-.37.5,1.52,1.52,0,0,1-.55.26,3.2,3.2,0,0,1-.82.09Zm.67-3.1h1.1a2.29,2.29,0,0,0,.64-.06.71.71,0,0,0,.39-.27.8.8,0,0,0,.13-.47.9.9,0,0,0-.12-.47.62.62,0,0,0-.35-.28,2.75,2.75,0,0,0-.77-.07h-1Zm0,2.47H245a2.81,2.81,0,0,0,.46,0,1.05,1.05,0,0,0,.39-.15.76.76,0,0,0,.26-.3,1,1,0,0,0,.1-.45.92.92,0,0,0-.14-.52.77.77,0,0,0-.4-.31,2.37,2.37,0,0,0-.74-.09h-1.17Z"/><path class="cls-15" d="M247.21,42.19l1.95-5.35h.72L252,42.19h-.76l-.59-1.62h-2.12l-.56,1.62Zm1.46-2.2h1.72l-.53-1.48q-.24-.68-.36-1.11a7.13,7.13,0,0,1-.27,1Z"/><path class="cls-15" d="M252.46,42.19V36.84h.67v4.71h2.5v.63Z"/><path class="cls-15" d="M256.45,42.19V36.84h.67V39h2.63v-2.2h.67v5.35h-.67V39.67h-2.63v2.52Z"/><path class="cls-15" d="M261.33,39.58A3,3,0,0,1,262,37.5a2.24,2.24,0,0,1,1.75-.75,2.33,2.33,0,0,1,1.26.35,2.26,2.26,0,0,1,.86,1,3.35,3.35,0,0,1,.3,1.43,3.29,3.29,0,0,1-.31,1.46,2.19,2.19,0,0,1-.88,1,2.41,2.41,0,0,1-1.23.33,2.29,2.29,0,0,1-2.13-1.36A3.15,3.15,0,0,1,261.33,39.58Zm.69,0a2.22,2.22,0,0,0,.49,1.52,1.66,1.66,0,0,0,2.48,0,2.35,2.35,0,0,0,.49-1.59,2.86,2.86,0,0,0-.21-1.14,1.67,1.67,0,0,0-.61-.75,1.59,1.59,0,0,0-.9-.27,1.67,1.67,0,0,0-1.23.52A2.39,2.39,0,0,0,262,39.59Z"/></g></svg>